<svg xmlns="http://www.w3.org/2000/svg" width="256" height="256"><path fill="#1976D2" fill-opacity=".016" fill-rule="evenodd" d="M0 128.004v128.004l128.25-.254 128.25-.254.254-127.75L257.008 0H0zm.485.496c0 70.4.119 99.053.265 63.672s.146-92.98 0-128S.485 58.1.485 128.5"/><path fill="#1976D2" fill-opacity=".123" fill-rule="evenodd" d="M16 46c0 .55-.675 1-1.5 1s-1.5.873-1.5 1.941-.481 2.238-1.069 2.602-.95 2.6-.805 4.97c.162 2.628-.294 4.985-1.168 6.038-2.302 2.774-3.917 10.215-4.532 20.879-.314 5.461-1.199 11.776-1.965 14.033-1.721 5.069-2.128 58.955-.51 67.537.57 3.025 1.504 10 2.076 15.5C6.828 197.83 9.394 203 16.194 203c1.608 0 2.7.362 2.426.806-.274.443 1.162 1.617 3.191 2.61s4.47 2.206 5.425 2.695c2.108 1.079 13.133 1.187 14.181.139.412-.412 1.26-.75 1.883-.75.726 0 1.028-1.706.841-4.75-.277-4.513-.163-4.75 2.283-4.75 2.262 0 2.576.414 2.576 3.393 0 4.434 1.828 5.038 7.671 2.534 9.742-4.176 10.6-6.486 12.792-34.427.129-1.65.51-3.9.847-5 2.185-7.144 3.185-17.076 1.805-17.929-1.544-.954-1.518-28.952.029-31.43 1.199-1.92.537-7.679-2.602-22.641-.808-3.85-1.485-9.731-1.505-13.068-.02-3.338-.722-8.376-1.559-11.196C63.962 60.767 59.214 58.352 44 57.805l-8.5-.305-.314-4.975c-.173-2.736-.79-5.548-1.372-6.25C32.521 44.718 16 44.463 16 46m86.763 28.565c-2.624 1.424-3.364 2.939-4.119 8.435-.189 1.375-.861 2.556-1.494 2.625-.632.069-1.49.181-1.906.25-2.328.385-3.723 7.212-3.703 18.125.019 10.492.26 11.982 2.75 17 4.729 9.528 7.805 12 14.934 12 4.218 0 5.19-.436 8.277-3.708 1.924-2.04 3.498-4.488 3.498-5.441s.45-2.011 1-2.351c1.469-.908 1.158-10.708-.405-12.767-.798-1.052-2-1.515-2.968-1.143-1.761.675-2.264 3.41-.627 3.41.55 0 1 .675 1 1.5 0 .924-.938 1.5-2.441 1.5-1.343 0-2.719.45-3.059 1-1.825 2.954-7.105.068-10.062-5.5-2.386-4.492-1.325-15.849 1.893-20.25 1.557-2.13 5.228-1.442 6.669 1.25 1.638 3.061 3.303 3.164 5.911.365 4.149-4.453 3.521-10.707-1.547-15.403-3.106-2.879-9.207-3.281-13.601-.897m24.305 1.339c-1.958 2.75-2.068 4.234-2.068 27.812 0 23.683.1 25.014 2.039 27.095 2.217 2.38 4.104 2.718 6.883 1.231 1.625-.87 1.748-2.27 1.339-15.25-.37-11.718-.179-14.652 1.062-16.29 3.245-4.285 3.872 1.046 2.381 20.255l-.797 10.257 2.797 1.084c2.138.829 3.384.761 5.296-.289 2.262-1.242 2.61-2.324 3.659-11.341 1.476-12.697.126-26.028-3.117-30.775-1.966-2.879-2.641-3.177-6.849-3.032-4.249.146-4.579-.005-3.68-1.684 1.457-2.724 1.199-8.908-.442-10.548-2.393-2.394-6.221-1.73-8.503 1.475m29.213-1.154c-.362.963-1.353 2.271-2.203 2.908-1.311.982-1.359 1.677-.312 4.571 1.496 4.138 1.574 6.491.228 6.94-1.235.411-2.586 32.861-1.59 38.172.514 2.738 1.382 4.007 3.219 4.706 5.898 2.242 10.088-1.638 8.457-7.831-.805-3.054-1.28-29.714-.789-44.331.185-5.537-5.341-9.585-7.01-5.135m37.124.353c-1.74 1.921-1.932 4.149-2.214 25.75-.169 13.006-.033 25.13.304 26.943.775 4.17 4.291 6.078 8.046 4.367l2.541-1.157-.678-11.345c-.769-12.854.016-20.661 2.078-20.661.747 0 1.659 1.365 2.025 3.034.61 2.777.042 15.185-1.104 24.112-.796 6.198 3.902 8.856 8.736 4.943 2.322-1.88 2.361-2.205 2.361-19.827V93.346l-2.887-3.786c-2.678-3.512-3.177-3.748-6.871-3.252l-3.984.534.52-4.62c.726-6.441-.51-9.222-4.098-9.222-1.646 0-3.682.897-4.775 2.103m-86.155 5.603c-1.237.238-2.25.852-2.25 1.364 0 1.375 2.227 1.073 4.441-.602 1.967-1.488 1.827-1.536-2.191-.762M157.5 81c.34.55 1.041 1 1.559 1s.941-.45.941-1-.702-1-1.559-1-1.281.45-.941 1m39.695 2.5c.02 1.65.244 2.204.498 1.231s.237-2.323-.037-3-.481.119-.461 1.769M15.5 84c.34.55 1.041 1 1.559 1s.941-.45.941-1-.702-1-1.559-1-1.281.45-.941 1m98.275-.442c-.895.895.361 4.476 1.355 3.862.496-.307.613-1.027.258-1.601-.354-.573-.024-1.435.734-1.915 1.121-.711 1.083-.876-.205-.889-.871-.008-1.835.236-2.142.543m-67.696 2.025c.048 1.165.285 1.402.604.605.289-.722.253-1.585-.079-1.917s-.568.258-.525 1.312m129.884.798c-2.932.947-3.463 1.579-3.463 4.119 0 2.879-2.474 6.5-4.441 6.5-1.642 0-2.133 1.755-2.723 9.74-1.169 15.815 3.727 26.26 12.31 26.26 4.12 0 7.687-1.885 9.312-4.922 2.014-3.762 2.726-9.524 1.536-12.419-1.015-2.467-1.358-2.653-2.602-1.408-4.259 4.259-8.36 4.279-9.969.048-2.084-5.482-.079-15.299 3.124-15.299 1.074 0 1.953.465 1.953 1.032 0 1.7 4.339 2.922 5.721 1.612 1.174-1.113 1.753-4.928 1.388-9.144-.442-5.118-6.227-8.032-12.146-6.119M225 85.955c-1.562.392-2.62 1.455-2.82 2.836-.175 1.215-.963 2.209-1.75 2.209-1.486 0-1.755 1.13-1.663 6.969.034 2.117.781 4.065 1.919 5 1.025.842 1.707 2.318 1.516 3.281s.134 1.75.725 1.75c2.114 0 1.026 2.578-1.158 2.742-3.156.238-4.769 2.943-4.769 7.999 0 5.112 1.913 9.259 5.615 12.171 2.17 1.707 4.06 2.088 10.351 2.088 10.687 0 10.693-.014 9.267-21.564-.838-12.653-1.508-17.214-2.832-19.258-2.309-3.564-5.342-6.16-7.304-6.255a31 31 0 0 1-3.097-.335c-.825-.143-2.625.023-4 .367m-29.921 1.628c.048 1.165.285 1.402.604.605.289-.722.253-1.585-.079-1.917s-.568.258-.525 1.312m-59.079 4c-1.75.971-1.999 1.392-.832 1.402 2.373.021 4.832-1.044 4.832-2.092 0-1.167-.949-1.003-4 .69m21.785 3.167c.518 8.217.938 8.995 1.079 2 .075-3.713-.205-6.75-.621-6.75s-.623 2.138-.458 4.75M202 91.583c-1.75.971-1.999 1.392-.832 1.402 2.373.021 4.832-1.044 4.832-2.092 0-1.167-.949-1.003-4 .69m-23.765.125c-1.245.239-2.033.811-1.749 1.27.645 1.043 4.514.105 4.514-1.095 0-.485-.113-.822-.25-.747s-1.269.332-2.515.572m47.275 1.308c.346.559 1.047.758 1.559.441 1.387-.857 1.129-1.457-.628-1.457-.857 0-1.276.457-.931 1.016M97.079 98.583c.048 1.165.285 1.402.604.605.289-.722.253-1.585-.079-1.917s-.568.258-.525 1.312m100 0c.048 1.165.285 1.402.604.605.289-.722.253-1.585-.079-1.917s-.568.258-.525 1.312M226 100.5c0 1.683.183 1.751 2.418.893S230.384 99 228 99c-1.111 0-2 .667-2 1.5m4.01 5.392c-1.545.43-2.053.963-1.34 1.404 1.359.84 4.33-.123 4.33-1.403 0-.491-.113-.848-.25-.793s-1.37.411-2.74.792M36.5 113.696c10.895.579 10.779.494 10.138 7.413-.474 5.115-.322 5.975 1.007 5.707 1.216-.246 1.597-1.821 1.71-7.067l.145-6.75-9.5.19c-6.567.131-7.648.287-3.5.507m192.438 1.421c-.903 1.686-.808 2.441.464 3.714 1.464 1.463 1.598 1.286 1.598-2.117 0-4.245-.456-4.598-2.062-1.597M112 127c-1.282.828-1.246.972.25.985.963.008 1.75-.435 1.75-.985 0-1.22-.113-1.22-2 0m68.5 0c-.34.55-.141 1 .441 1s1.059-.45 1.059-1-.198-1-.441-1-.719.45-1.059 1m-98.561 14.934c-2.71 2.323-3.275 6.603-3.666 27.747-.312 16.89-.138 19.636 1.453 23l1.806 3.819h8.164c9.608 0 12.479-1.524 16.054-8.52 1.935-3.788 2.25-4.045 2.25-1.842 0 3.936 5.466 10.862 8.572 10.862 3.815 0 6.188-1.638 8.376-5.781l1.964-3.719.044 3.179c.073 5.249 5.647 8.64 7.819 4.758.794-1.418.996-1.418 2.173 0 2.537 3.057 7.041 1.216 7.063-2.887.01-1.758.376-1.587 2.573 1.2 2.371 3.009 2.998 3.25 8.453 3.25 5.044 0 6.062-.316 7.067-2.195 1.66-3.101.531-22.314-1.553-26.44-3.05-6.04-11.02-6.766-14.25-1.298l-1.681 2.846-1.645-2.706c-1.55-2.548-1.532-2.862.293-5.343 2.745-3.73 1.612-6.709-2.562-6.737-1.763-.011-4.556-.157-6.206-.324-2.4-.242-2.941.05-2.703 1.463.164.971-.061 1.705-.5 1.631-2.563-.431-3.152.676-3.801 7.145l-.707 7.042-1.645-3.291c-1.941-3.886-6.033-6.11-9.595-5.216-2.186.549-2.549 1.195-2.549 4.531 0 2.141-.477 3.892-1.059 3.892s-.781-.45-.441-1 .141-1-.441-1-1.059.45-1.059 1-.398 1-.885 1c-.486 0-1.189-2.588-1.56-5.75-1.172-9.967-5.965-20.098-11.054-23.365-3.394-2.178-12.44-2.769-14.562-.951m97.988-.076c-1.803 1.46-2.457 3.331-3.059 8.75-1.789 16.108-.401 43.806 2.28 45.505 1.994 1.263 5.221 1.069 7.282-.438 1.69-1.236 1.74-2.255.746-15.222-.586-7.643-.883-14.08-.658-14.304s.93.888 1.569 2.472a304 304 0 0 0 2.02 4.879c.471 1.1 1.343 4.025 1.938 6.5l2.07 8.618c1.847 7.679 7.443 10.738 11.48 6.276 1.763-1.948 1.902-3.871 1.866-25.75-.04-24.833-.442-27.368-4.545-28.671-2.513-.797-6.918 2.868-6.464 5.379.736 4.065 1.697 15.598 1.263 15.148-.266-.275-1.516-2.975-2.779-6-2.944-7.052-6.816-12.6-9.733-13.942-2.901-1.336-2.577-1.385-5.276.8m-90.658 5.835c.973.254 2.323.237 3-.037s-.119-.481-1.769-.461-2.204.244-1.231.498m5.81 3.89c.048 1.165.285 1.402.604.605.289-.722.253-1.585-.079-1.917s-.568.258-.525 1.312M82.232 155c0 1.925.206 2.713.457 1.75.252-.963.252-2.537 0-3.5-.251-.963-.457-.175-.457 1.75m7.218 5.624c-.396 3.7-.322 10.136.165 14.302l.885 7.574 3.75.032c2.485.022 3.75-.42 3.75-1.309 0-.737-.338-1.131-.75-.875-.412.257-.598-2.183-.412-5.422.359-6.262-2.702-17.739-5.309-19.902-1.113-.923-1.489.091-2.079 5.6m91.707 3.926.158 7.95.66-7c.363-3.85.292-7.428-.157-7.95-.45-.522-.747 2.628-.661 7m48.171-2.087c-3.058 4.827-3.835 5.228-6.249 3.23-3.485-2.884-6.731-3.625-8.979-2.05-1.174.822-1.874 1.913-1.558 2.425.317.513-.077.932-.875.932-2.593 0-2.944 4.866-.633 8.782l2.12 3.593-2.014 1.563c-3.004 2.329-2.776 10.083.396 13.506 1.971 2.127 3.265 2.556 7.716 2.556 2.942 0 5.888-.54 6.548-1.2.758-.758 1.262-5.089 1.368-11.75l.167-10.55.583 10.097c.572 9.93 1.76 13.403 4.582 13.403.69 0 1.825-.686 2.521-1.525 1.134-1.367 1.441-1.367 2.951 0 2.171 1.965 3.546 1.922 7.189-.225 4.629-2.728 8.815-10.409 9.706-17.811 1.203-9.99.374-13.439-3.229-13.439-2.73 0-3.638 1.628-3.638 6.523 0 1.847-.45 3.637-1 3.977-.605.374-1-1.013-1-3.512 0-4.877-1.754-6.988-5.804-6.988-2.473 0-3.042-.481-3.546-3-.905-4.523-3.909-3.922-7.322 1.463M188 159.882c0 .55.45 1.278 1 1.618s1 .168 1-.382-.45-1.278-1-1.618-1-.168-1 .382m15.343 7.618c.003 4.4.179 6.076.39 3.724s.209-5.952-.006-8-.388-.124-.384 4.276m-156.616-3.75c-.215.412-.343 2.662-.283 5s-.267 4.25-.726 4.25c-.46 0-.543.475-.184 1.055.359.581 1.398.912 2.309.736 1.313-.253 1.657-1.511 1.657-6.055 0-3.77-.408-5.736-1.191-5.736-.655 0-1.367.338-1.582.75m84.352 2.833c.048 1.165.285 1.402.604.605.289-.722.253-1.585-.079-1.917s-.568.258-.525 1.312m83.734 1.1c.721.289 1.584.253 1.916-.079s-.258-.568-1.312-.525c-1.165.048-1.402.285-.604.604M240 169.059c0 .582.45.781 1 .441s1-.816 1-1.059-.45-.441-1-.441-1 .477-1 1.059M12.5 170c.34.55 1.068 1 1.618 1s.722-.45.382-1-1.068-1-1.618-1-.722.45-.382 1m118.579 1.583c.048 1.165.285 1.402.604.605.289-.722.253-1.585-.079-1.917s-.568.258-.525 1.312M221.5 174c-.34.55-.141 1 .441 1s1.059-.45 1.059-1-.198-1-.441-1-.719.45-1.059 1M116 178.917c0 3.931.352 5.083 1.555 5.083 1.228 0 1.491-.982 1.25-4.672-.435-6.672-2.805-7.019-2.805-.411m120.068-1.792c-.038 1.994.216 5.047.564 6.785.589 2.946.752 3.052 2.394 1.566 1.506-1.363 1.583-1.984.528-4.285a382 382 0 0 1-2.326-5.191c-1.054-2.411-1.095-2.371-1.16 1.125m-100.953 5.566c.101 6.838.218 7.312.942 3.809 1.152-5.569 1.128-10.268-.057-11-.638-.394-.958 2.212-.885 7.191M146 177.833c0 1.332.625 2.167 1.622 2.167 1.389 0 1.43-.252.283-1.75a91 91 0 0 1-1.622-2.167c-.156-.229-.283.559-.283 1.75m6.813-.15c.721.289 1.584.253 1.916-.079s-.258-.568-1.312-.525c-1.165.048-1.402.285-.604.604M130.158 180c0 1.375.227 1.938.504 1.25.278-.687.278-1.812 0-2.5-.277-.687-.504-.125-.504 1.25m91.921-.417c.048 1.165.285 1.402.604.605.289-.722.253-1.585-.079-1.917s-.568.258-.525 1.312m-125.05 10.378c-.809.512-1.136 1.265-.726 1.675s1.505-.016 2.435-.946c1.807-1.807.726-2.269-1.709-.729m145.412.507c-1.647 1.246-1.693 1.473-.298 1.5.904.018 1.902-.643 2.219-1.468.715-1.863.505-1.867-1.921-.032M118 191c-1.282.828-1.246.972.25.985.963.008 1.75-.435 1.75-.985 0-1.22-.113-1.22-2 0m-102 8.059c0 .582.45.781 1 .441s1-.816 1-1.059-.45-.441-1-.441-1 .477-1 1.059"/><path fill="#1976D2" fill-opacity=".373" fill-rule="evenodd" d="M15.933 47.255c-4.164 3.643-5.542 7.294-4.147 10.99 1.035 2.742.935 3.366-.801 4.984-1.092 1.017-2.041 2.281-2.11 2.81a16 16 0 0 1-.328 1.711c-.878 3.255-1.829 9.016-2.066 12.53-.599 8.866-1.696 16.351-2.892 19.72-1.738 4.901-1.156 54.733.812 69.5.806 6.05 1.933 14.473 2.504 18.718 1.049 7.8 2.452 11.321 4.884 12.254 1.012.389 1.198-.328.777-2.98-.305-1.921-.36-3.492-.122-3.492s4.08 1.177 8.538 2.615c7.229 2.331 9.156 2.553 17.812 2.045 5.338-.312 11.281-.84 13.206-1.172 3.135-.541 3.318-.456 1.75.814-.962.78-1.75 2.439-1.75 3.686 0 2.106.303 2.22 4.25 1.599 7.65-1.203 9.288-4.008 11.151-19.087.883-7.15 1.604-14.372 1.602-16.05-.002-1.677.506-3.559 1.127-4.18 1.504-1.504 1.621-61.647.123-63.496-.924-1.142-2.031-9.081-2.825-20.274-.482-6.797-1.65-12.5-2.56-12.5-.477 0-.868-.715-.868-1.589 0-1.245-.649-1.043-2.995.931-3.064 2.578-6.78 4.216-7.633 3.364-.262-.262 1.572-1.469 4.076-2.681S62 65.197 62 64.434c0-3.514-12.001-7.013-21.385-6.235L35 58.665v-4.286c0-2.357-.522-5.431-1.161-6.832-1.085-2.381-1.621-2.547-8.25-2.542-5.914.004-7.514.377-9.656 2.25M22 52.965c0 1.107 3.937 3.431 4.633 2.735.603-.602-2.499-3.7-3.704-3.7-.511 0-.929.434-.929.965M21.5 62c-.34.55.309 1 1.441 1S25 62.55 25 62s-.648-1-1.441-1-1.719.45-2.059 1m21.161 8.672c-.369.37-4.703.611-9.63.536-5.186-.079-9.224.295-9.59.888-.392.634-2.691.767-6.037.349L12 71.77v5.954c0 5.411.233 6.061 2.547 7.115C15.948 85.478 18.555 86 20.34 86h3.245l-.042-5.25-.043-5.25 3.5.174c1.925.096 5.33.449 7.566.784l4.067.609-.65 5.062c-.764 5.962-.193 6.411 7.053 5.553 5.275-.625 10.315-2.732 8.211-3.433-1.465-.488-1.641-6.083-.259-8.249.787-1.235.122-1.602-3.766-2.078l-4.722-.577 3.271-.802c1.799-.441 3.513-1.193 3.809-1.672.625-1.012-7.916-1.202-8.919-.199m67.073 4.197c6.243 1.218 8.44 5.148 6.639 11.87-.709 2.645-2.121 2.055-3.451-1.444-.861-2.264-1.322-2.443-4.681-1.812-4.743.889-4.922 1.014-6.942 4.83-2.142 4.045-2.37 16.769-.39 21.687 3.159 7.842 9.095 11.083 13.65 7.453 1.837-1.464 1.773-1.515-1.181-.949-4.019.771-8.378-.329-8.378-2.112 0-.766-.477-1.392-1.059-1.392s-.8-.419-.484-.931.118-1.213-.441-1.559-1.016-4.132-1.016-8.415c0-8.952 1.827-13.763 5.586-14.706 2.638-.662 5.414.996 5.414 3.233 0 1.855 2.489 1.746 4.429-.193 1.992-1.993 2.1-10.042.16-11.983-.776-.775-1.578-1.913-1.782-2.526-.205-.614-2.383-1.244-4.84-1.4-3.483-.22-3.755-.144-1.233.349m21.016-.207c.688.278 1.813.278 2.5 0 .688-.277.125-.504-1.25-.504s-1.937.227-1.25.504m67 .044c2.461.474 2.615 1.452 1.298 8.28-.823 4.265.005 8.014 1.769 8.014.411 0 .85-3.458.976-7.684.241-8.06-.388-9.401-4.293-9.165-1.725.105-1.691.181.25.555M159.8 76.2c1.477 1.477 1.575 5.45.156 6.327-.574.355-1.679.118-2.456-.527s-1.865-.893-2.417-.551c-1.231.76 1.908 7.49 3.511 7.526.73.017 1.296 6.398 1.706 19.235.338 10.565.521 19.301.407 19.412s-1.445-.036-2.957-.327l-2.75-.528-.156-18.134-.156-18.133-.741 12c-1.07 17.326-.484 26.704 1.76 28.179 2.335 1.535 7.003.584 7.5-1.528.213-.908.075-6.601-.306-12.651-.382-6.05-.449-14.487-.149-18.75.385-5.483.209-7.75-.604-7.75-1.409 0-1.534-4.643-.148-5.5 2.463-1.522.256-9.5-2.629-9.5-.424 0-.231.54.429 1.2m-26.175 2.925c-.98 4.9-.734 10.69.487 11.444.611.378 1.399.232 1.75-.325s1.538-1.237 2.638-1.512c1.54-.385 1.371-.527-.735-.616L135.031 88l.627-6c.666-6.372-.893-8.576-2.033-2.875m-7.051 1.125c-1.269 7.97-1.124 44.75.176 44.75.412 0 .778-10.8.812-24s-.058-24-.204-24c-.147 0-.5 1.463-.784 3.25m65.789 1.5c-1.454 9.083-.727 46.233.956 48.958.947 1.532 6.641.965 7.746-.771.503-.79.608-2.112.235-2.937-1.246-2.75-1.28-22.593-.045-25.865 1.33-3.522 2.193-3.83 4.439-1.584 1.588 1.588 1.553 4.515-.299 24.564-.602 6.515-.572 6.624 2.018 7.274 2.875.721 6.544-.751 6.661-2.674.041-.668.329-2.34.64-3.715 1.006-4.442.688-23.343-.484-28.843-1.264-5.929-2.665-8.165-5.102-8.142-.957.009-1.206.318-.605.75.563.404 1.853 2.038 2.868 3.629 1.636 2.568 1.799 4.601 1.438 18.003-.223 8.31-.726 15.628-1.118 16.262s-1.5.948-2.462.696c-1.569-.41-1.749-2.029-1.749-15.746 0-16.338-.667-18.901-4.649-17.86-3.901 1.02-5.107 6.426-4.681 20.98.253 8.685.032 13.266-.641 13.256-3.418-.051-3.604-1.414-3.587-26.317.01-13.567-.171-24.668-.401-24.668s-.76 2.138-1.178 4.75m-14.659 5.354c.791.791 1.626.799 2.95.03 1.618-.941 1.482-1.077-1.104-1.104-2.151-.022-2.651.269-1.846 1.074M225.5 87c.34.55 1.465 1 2.5 1s2.16-.45 2.5-1c.362-.585-.676-1-2.5-1s-2.862.415-2.5 1m-81.403 3.083c2.352 2.04 2.403 2.425 2.403 18.25 0 8.892-.31 16.92-.689 17.839-.463 1.126-1.393 1.489-2.841 1.11-1.893-.495-2.084-1.06-1.578-4.673 1.646-11.758 1.823-18.936.564-22.931-1.737-5.514-2.634-6.575-5.024-5.95-3.745.979-4.433 4.034-4.405 19.544.022 11.598-.247 14.659-1.25 14.25-.702-.287-1.952-.795-2.777-1.129-1.095-.443-1.5.068-1.5 1.892 0 1.809.668 2.666 2.421 3.106 3.142.789 5.566-.179 5.629-2.248.027-.904.007-7.758-.046-15.233-.077-11.119.186-13.823 1.451-14.872 1.26-1.047 1.845-1.033 3.177.071 1.392 1.156 1.54 2.825 1.009 11.373-.343 5.51-.873 12.34-1.178 15.178-.556 5.16-.556 5.161 2.683 5.872 6.458 1.418 7.712-3.549 6.949-27.532-.266-8.378-3.007-16-5.753-16-1.289 0-1.124.454.755 2.083m40.248-.254c1.738 1.921 2.061 3.949 1.048 6.589-.86 2.242-1.898 1.964-3.18-.851-1.015-2.227-1.366-2.335-4.149-1.285-3.932 1.484-6.064 6.042-6.064 12.965 0 6.375 2.21 11.436 5.686 13.02 2.69 1.225 5.355.209 6.129-2.338.35-1.151.177-1.186-.89-.179-5.514 5.202-11.264-6.216-7.575-15.044 1.975-4.729 4.38-5.757 6.716-2.873 2.067 2.552 2.604 2.64 4.505.738 2.776-2.775.562-12.571-2.841-12.571-.572 0-.295.823.615 1.829m50.889 1.087 3.266 2.915.5 16.683c.275 9.175.221 16.854-.121 17.063-.341.21-3.101.485-6.133.612-4.561.191-6.225-.24-9.63-2.493-3.559-2.356-4.112-2.486-4.084-.96.044 2.441 1.925 4.676 5.482 6.514 3.635 1.878 16.064 1.293 16.865-.794.816-2.127-.622-34.456-1.532-34.456-.466 0-.855-.787-.864-1.75-.019-1.92-4.099-6.25-5.89-6.25-.618 0 .345 1.312 2.141 2.916M93.439 105.5l.108 14 3.391 5.143c3.354 5.089 8.104 8.357 12.146 8.357 3.131 0 7.543-2.668 9.91-5.992 3.742-5.254 4.01-19.008.37-19.008-1.214 0-1.416.539-.839 2.25 1.911 5.668-.026 13.178-4.425 17.16-1.834 1.66-2.588 1.758-5.853.763-11.011-3.356-14.086-8.665-14.576-25.173-.279-9.396-.321-8.939-.232 2.5M219 93.5c0 .825.436 1.5.969 1.5s.709-.675.393-1.5c-.317-.825-.753-1.5-.969-1.5s-.393.675-.393 1.5m8.259.274c-1.233.199-2.857 1.242-3.61 2.317-.89 1.271-1.972 1.722-3.097 1.291-1.373-.527-1.659-.193-1.39 1.625.186 1.259 1.131 2.785 2.1 3.391 1.448.906 2.174.584 4.09-1.816 1.566-1.964 2.871-2.71 3.988-2.282 2.654 1.019 1.934 2.688-1.84 4.264-1.925.805-3.5 1.913-3.5 2.463 0 .572 1.55.352 3.622-.514 1.992-.832 3.776-1.513 3.965-1.513.188 0 .811-.874 1.382-1.943.733-1.368.703-2.683-.1-4.445-1.282-2.813-2.369-3.363-5.61-2.838M166 110.941c0 6.706.394 11.059 1 11.059.55 0 .927.338.839.75-.434 2.012 2.462 6.467 5.386 8.288 8.05 5.013 17.088-3.718 15.024-14.515-.635-3.323-2.249-2.192-2.249 1.576 0 3.903-3.607 10.901-5.619 10.901-3.009 0-8.506-3.298-11.045-6.626-2.445-3.205-2.521-3.714-1.847-12.24.482-6.086.358-9.11-.392-9.574-.771-.476-1.097 2.613-1.097 10.381m63.5-2.241c-6.211 1.455-6.091 10.112.19 13.67 1.952 1.105 5.31-3.401 5.31-7.124 0-3.466-1.512-7.337-2.785-7.13-.393.064-1.615.327-2.715.584M8.565 116.112c.063 6.099.152 6.304 3.5 8.017 1.889.966 4.774 1.895 6.411 2.064l2.976.307-.264-6.25-.265-6.25 5.788.118c3.184.065 7.139.41 8.789.767 2.993.646 2.999.663 2.649 6.881L37.798 128h6.054c3.33 0 7.122-.486 8.426-1.081 2.179-.993 2.335-1.54 1.909-6.683-.434-5.232-.274-5.755 2.417-7.901l2.883-2.298-5.494.731c-7.292.972-24.225.929-35.993-.091l-9.5-.824zm210.062-1.851c-.863 3.22-.762 4.94.254 4.313 1.183-.732 2.044-5.502 1.099-6.087-.414-.255-1.023.543-1.353 1.774m9.891.071c-1.417 2.163-1.516 2.965-.514 4.173.683.822 1.808 1.495 2.502 1.495 1.771 0 2.464-4.659.992-6.672-1.11-1.518-1.389-1.424-2.98 1.004M32.25 132.689c1.935.506 2.295 1.856.75 2.811-1.541.952-1.185 5.791.616 8.362 1.161 1.657 1.921 2.001 2.7 1.222.596-.596 1.95-1.084 3.008-1.084 1.719 0 1.875-.582 1.471-5.46-.364-4.384-.142-5.543 1.126-5.884.868-.233-1.346-.424-4.921-.424s-5.712.206-4.75.457m60.261 10.293c-.346.56-.04 1.033.68 1.051 2.308.059 5.33 3.33 7.823 8.467 3.219 6.635 3.18 6.435 3.651 18.5.4 10.268.341 10.617-2.69 15.824l-3.1 5.324-7.688-.366c-4.228-.202-8.474-.733-9.437-1.181-1.366-.636-1.75-.36-1.75 1.257 0 3 2.953 4.142 10.706 4.142 6.08 0 7.231-.324 10.379-2.919 2.042-1.683 4.107-4.632 4.877-6.967.735-2.226 1.672-3.84 2.082-3.587.411.254 1.019-.248 1.351-1.115.937-2.442.714-7.412-.334-7.412-.516 0-1.227-2.137-1.581-4.75-.755-5.584-2.103-10.526-4.066-14.901-.778-1.733-1.414-3.672-1.414-4.309s-.399-.912-.886-.61c-.488.301-1.101-.273-1.363-1.276-.627-2.395-6.405-6.523-7.24-5.172m92.504-.454c-.008.565.885 1.798 1.985 2.74 2.126 1.82 2.604 1.214 1-1.268-.533-.825-.983-1.05-1-.5s-.467.325-1-.5-.976-1.038-.985-.472m18.826-.035c-.321.32-.144 2.639.392 5.153 1.056 4.951.701 42.754-.411 43.866-1.201 1.2-6.686-.588-7.145-2.328-.261-.986-.493-.573-.561.995-.244 5.625 6.435 7.962 9.479 3.317 1.435-2.191 1.581-5.289 1.168-24.75-.429-20.139-1.291-27.885-2.922-26.253m-124.153 8.695c-.337 4.008-.24 7.66.215 8.115.454.454 1.145-2.41 1.535-6.365.405-4.116.313-7.587-.216-8.116-.565-.565-1.161 1.907-1.534 6.366m98.39-3.532c-1.278 4.606-1.456 41.344-.199 41.344.754 0 2.25-43.895 1.528-44.844-.143-.189-.742 1.386-1.329 3.5M197 147.5c0 .825.45 1.5 1 1.5s1-.675 1-1.5-.45-1.5-1-1.5-1 .675-1 1.5m-7.24.079c-.321.52.035 2.065.792 3.434.758 1.368 1.361 1.812 1.342.987-.057-2.448-1.502-5.443-2.134-4.421m-102.203 3.644c-1.216 1.736-1.556 5.073-1.553 15.25.003 11.222.278 13.477 1.985 16.277 2.026 3.323 6.13 4.484 7.577 2.143.445-.719.027-.909-1.191-.541-1.031.312-2.741-.085-3.8-.881-1.636-1.23-1.992-3.075-2.373-12.322-.29-7.054-.018-12.176.774-14.577 1.175-3.558 1.296-3.635 3.123-1.982 1.046.946 1.901 2.325 1.901 3.065S94.525 159 95.167 159c.641 0 .918.249.613.553-.304.304.071 2.625.834 5.159.762 2.533 1.386 6.586 1.386 9.006 0 3.012.356 4.18 1.128 3.703 2.253-1.393-.228-14.137-4.803-24.671-1.873-4.312-4.416-4.886-6.768-1.527m111.574 5.527c-.072 3.438-.581 6.25-1.131 6.25s-1-.675-1-1.5-.477-1.5-1.059-1.5-.8-.419-.484-.931.118-1.213-.441-1.559-1.068-1.614-1.132-2.819c-.083-1.576-.24-1.721-.559-.514-.244.922.44 3.847 1.52 6.5s2.218 5.61 2.528 6.573c.664 2.061 2.476 2.308 3.194.436.278-.723.097-4.886-.4-9.25l-.905-7.936zm-191.074.357c.597 1.116.964 4.001.816 6.413-.319 5.193 1.735 8.046 6.481 8.998 1.73.347 3.892.84 4.805 1.095 1.454.407 1.591-.281 1.111-5.575L20.722 162h3.492c1.921 0 6.214.284 9.541.632 6.004.628 6.042.652 5.138 3.25-.502 1.44-.775 4.193-.608 6.118l.304 3.5 5.392-.152c7.128-.2 13.366-2.224 11.985-3.889-.56-.675-1.07-2.967-1.134-5.093-.185-6.148-2.472-7.62-10.603-6.824-7.982.782-27.409-.989-33.178-3.024-3.987-1.407-4.055-1.393-2.994.589m124.693-1.445c.688.278 1.813.278 2.5 0 .688-.277.125-.504-1.25-.504s-1.937.227-1.25.504m8.25 2.572c0 1.537-.43 1.751-2.25 1.116-2.585-.903-7.512-.921-8.401-.032-.545.544-1.47 4.194-3.023 11.922-.59 2.937-2.326 2.823-2.326-.153 0-3.054-4.56-7.087-8.011-7.087-1.817 0-2.85.415-2.489 1 .34.55 1.638 1 2.885 1s3.245 1.042 4.441 2.314c3.917 4.171 2.76 17.374-2.052 23.41-1.173 1.471-5.535-.477-8.718-3.895l-2.003-2.149.404 2.095c.706 3.668 2.515 6.159 5.649 7.78 2.764 1.429 3.268 1.43 5.431.013 1.312-.86 3.265-3.477 4.34-5.816s1.992-3.465 2.039-2.502c.046.963.722 1.75 1.501 1.75 1.032 0 1.324-1.02 1.074-3.75-.681-7.446.721-21.25 2.159-21.25.742 0 1.35.731 1.35 1.625 0 1.246.652 1.495 2.797 1.066 5.062-1.013 5.677.222 5.985 12.021.277 10.568-.624 14.846-2.691 12.779-.639-.639-.663-2.417-.066-4.992 1.274-5.493 1.198-10.24-.226-14.178-1.357-3.752-1.652-3.881-4.358-1.9-1.698 1.243-1.941 2.678-1.941 11.457 0 9.908-.029 10.028-2.25 9.47-1.577-.396-2.25-.121-2.25.921 0 2.244 2.645 3.978 4.952 3.246 1.891-.6 2.048-1.447 2.048-11.051 0-9.212.187-10.33 1.633-9.774 1.393.534 1.532 1.672.946 7.718-.379 3.901-.776 8.158-.884 9.461-.432 5.24 6.082 5.311 7.317.08.553-2.341.578-2.334 2.841.844 2.122 2.981 2.694 3.207 8.108 3.207 4.035 0 5.988-.425 6.356-1.383.291-.76.269-6.688-.051-13.173-.544-11.064-.747-11.965-3.281-14.618-2.68-2.804-8.985-4.085-8.985-1.826 0 .55 1.565 1 3.477 1 5.175 0 6.27 2.49 6.706 15.25l.368 10.75h-3.825c-2.104 0-5.17-.695-6.813-1.545-2.716-1.405-2.926-1.867-2.318-5.109.437-2.33.257-3.819-.519-4.299-.654-.404-1.451-3.28-1.772-6.391S143.333 169 142.86 169s-.789-.338-.701-.75c.087-.412-.193-1.554-.622-2.537-.504-1.157-.208-2.419.842-3.579 2.039-2.254 2.114-5.801.121-5.801-.825 0-1.5.856-1.5 1.901m42.358.276c-.701 1.826.184 22.302 1.27 29.38l.673 4.389-3.651-.685c-2.811-.527-3.65-.357-3.65.738 0 2.216 2.608 3.845 5.589 3.49 3.89-.462 5.036-2.813 3.651-7.484-.627-2.111-1.368-8.451-1.648-14.088-.424-8.546-.266-10.25.95-10.25.802 0 1.458.8 1.458 1.777 0 .978.631 2.678 1.401 3.779.771 1.1 1.563 3.113 1.759 4.472.272 1.878.515 2.087 1.011.871.78-1.915-5.175-17.067-6.939-17.655-.677-.226-1.52.344-1.874 1.266m49.392 2.152c.688.278 1.25 1.592 1.25 2.921s.45 2.417 1 2.417 1 .675 1 1.5-.675 1.5-1.5 1.5c-1.209 0-1.5 1.563-1.5 8.066 0 4.436.448 8.903.996 9.927 1.39 2.597.165 5.282-2.134 4.681-1.435-.375-1.862.065-1.862 1.92 0 3.051 2.939 3.236 5.552.349l1.862-2.057.761 2.057c2.082 5.63 10.915-.677 14.662-10.469 2.598-6.787 2.905-15.875.615-18.164-2.059-2.059-2.921-1.035-1.306 1.552 3.651 5.847-6.321 27.543-11.71 25.475-2.142-.822-1.764-2.03 1.564-4.995 3.373-3.005 3.712-4.506 1.442-6.39-2.452-2.035-4.635-8.156-4.108-11.519.358-2.28-.009-3.373-1.427-4.259-1.049-.655-1.907-2.087-1.907-3.182 0-1.422-.643-1.969-2.25-1.913-1.238.043-1.687.306-1 .583m-3.49 2.886c-.682.74-.842 1.592-.355 1.893s1.168-.189 1.514-1.09c.827-2.155.375-2.469-1.159-.803M213.5 165c.34.55 1.924 1 3.52 1 5.451 0 6.821 2.891 7.17 15.126l.31 10.878-4.5-.024c-5.686-.031-8.745-2.332-9.278-6.98-.306-2.668-.44-2.261-.562 1.711-.129 4.2.264 5.607 2.029 7.25 2.31 2.152 3.199 2.359 8.811 2.047 5.918-.329 6.253-1.116 5.455-12.825-.589-8.644-.475-10.357.667-9.98.93.306 1.54 2.758 1.878 7.546.728 10.328 1.509 9.566 1.44-1.406-.035-5.4-.509-9.782-1.1-10.167-.572-.372-1.297-1.351-1.611-2.176-.455-1.195-.587-1.144-.65.25-.112 2.491-1.965 2.164-4.258-.75-1.51-1.92-2.891-2.5-5.953-2.5-2.403 0-3.741.397-3.368 1m27.723.75c.843.963 1.834 3.851 2.204 6.418.369 2.568 1.335 5.219 2.146 5.893 2.213 1.836 2.653.602.951-2.662-.831-1.595-1.514-3.941-1.518-5.215-.008-3.233-1.772-6.184-3.696-6.184-1.46 0-1.469.173-.087 1.75m7.614 5.164c-.222 2.33-.102 4.422.267 4.651 1.004.62 1.782-5.846.9-7.476-.484-.893-.911.142-1.167 2.825m-132.809-1.615c-4.11 2.049-4.863 11.769-1.236 15.951 1.649 1.902 4.208 2.358 4.208.75 0-.55-.627-1-1.393-1-2.551 0-3.675-7.858-1.573-11 .869-1.298 1.203-1.239 2.485.441.815 1.068 1.481 2.954 1.481 4.191 0 1.238.45 2.528 1 2.868 2.065 1.276.36-10.141-1.898-12.711-.343-.391-1.727-.162-3.074.51m35.472-.519c-1.1.244-2.365 1.077-2.811 1.853-.447.775-1.203 1.167-1.681.872-2.019-1.248-1.857 1.556.228 3.939l2.264 2.589 3.25-2.002c1.787-1.101 3.25-2.597 3.25-3.325 0-2.281-2.415-4.387-4.5-3.926m64 .415c-1.1.624-2.338 1.623-2.75 2.22-.511.74-1.094.608-1.831-.415-.833-1.156-.936-.841-.451 1.371 1.043 4.75 2.786 5.848 6.413 4.038 3.957-1.973 4.343-2.688 3.151-5.825-1.092-2.871-1.628-3.036-4.532-1.389m19.951 4.884c-.698 1.13.371 13.921 1.164 13.921.25 0 1.553-.719 2.895-1.598 2.248-1.473 2.333-1.807 1.085-4.25-.745-1.459-1.669-4.115-2.054-5.902-.711-3.301-1.883-4.124-3.09-2.171m-42.338 3.421c-.168 3.685 1.138 9.5 2.134 9.5.543 0 .734-1.012.426-2.25-1.726-6.924-2.477-9.054-2.56-7.25m-112.803 5c.005 3.3.192 4.529.415 2.732s.218-4.497-.01-6c-.229-1.503-.411-.032-.405 3.268m72.386-3.264c-2.459.848-2.767 1.404-2.5 4.514.624 7.28 6.804 6.542 6.804-.813 0-4.503-.566-4.989-4.304-3.701m64.304.054c-3.075 1.55-3.748 5.226-1.425 7.792 2.155 2.382 3.627 2.431 5.023.168 1.093-1.772.722-9.262-.457-9.235-.353.008-1.766.582-3.141 1.275m-64.333 4.377c-1.151 1.15-.729 2.333.833 2.333.825 0 1.5-.675 1.5-1.5 0-1.562-1.183-1.984-2.333-.833m64.916.199c-.431.697-.513 1.537-.183 1.867.895.895 1.871-.421 1.387-1.871-.338-1.016-.574-1.016-1.204.004M23.215 202.872c.109 3.809 4.078 6.128 10.489 6.128 4.886 0 4.896-.007 4.896-3.346 0-3.1-.318-3.431-4.314-4.5-2.373-.635-5.853-1.154-7.733-1.154-3.118 0-3.412.253-3.338 2.872"/><path fill="#1976D2" fill-opacity=".246" fill-rule="evenodd" d="M27 45.671c0 .369.775 1.528 1.722 2.574C32.141 52.023 30.612 67 26.808 67c-.628 0-.875.266-.55.592.737.736 2.505-.289 6.77-3.925 1.948-1.661 2.892-3.108 2.282-3.5-.572-.367-1.367-3.328-1.767-6.581-.4-3.252-1.329-6.515-2.064-7.25C30.095 44.952 27 44.492 27 45.671M15 48.5c-.685.825-.939 1.5-.566 1.5.374 0-.002.973-.836 2.163-2.207 3.151-.996 10.564 2.211 13.536 3.196 2.962 5.177 3.003 2.495.051-2.834-3.119-3.665-9.642-1.798-14.109.822-1.967 1.494-3.816 1.494-4.109 0-1.069-1.788-.492-3 .968m3 7.378c0 1.301 2.947 3.509 3.691 2.765.353-.354.131-.643-.493-.643s-.876-.675-.56-1.5c.365-.95-.013-1.5-1.031-1.5-.884 0-1.607.395-1.607.878m22.75 4.784c.688.278 1.25 1.142 1.25 1.921 0 1.855.93 1.791 3.15-.219 1.574-1.424 2.389-1.473 6.299-.378 3.944 1.104 4.369 1.486 3.486 3.136C54.08 66.718 54.292 67 56.342 67c2.735 0 4.89-2.034 3.851-3.634-1.536-2.364-5.445-3.362-12.877-3.287-4.299.043-7.253.306-6.566.583m21.857 10.92c-1.035 2.698-.667 10.263.536 11.006 1.838 1.137-2.815 3.025-12.143 4.929-13.133 2.679-33.419.715-40.496-3.923-1.679-1.1-2.346-2.439-2.285-4.588.047-1.669-.208-3.328-.566-3.687-.359-.359-.654 1.785-.654 4.764C6.998 83.062 6.323 89.325 5.5 94c-1.721 9.77-1.887 13.357-.582 12.55.505-.312 3.525.112 6.71.941 9.205 2.398 9.961 2.197 11.268-2.991.706-2.805 1.692-4.5 2.618-4.5.817 0 1.486-.45 1.486-1s.675-1 1.5-1 2.416-.916 3.536-2.036c2.569-2.569 3.96-1.749 3.979 2.345.009 1.755.452 3.866.985 4.691.698 1.08.978.101 1-3.5.039-6.443 1.657-9.404 2.595-4.75.827 4.104 2.046 4.16 2.93.135l.684-3.115 1.867 2.846c1.026 1.565 2.149 4.132 2.495 5.705.481 2.191 1.072 2.744 2.528 2.363 1.593-.416 1.901.055 1.901 2.91 0 2.879.348 3.399 2.25 3.362 2.03-.039 5.614-1.162 11.247-3.523 1.97-.825 1.972-.798.14 1.999-1.447 2.208-1.763 4.152-1.427 8.788.411 5.691.295 6.054-2.64 8.264-1.688 1.272-3.97 2.568-5.07 2.881s-.15.363 2.112.112l4.112-.456.629 5.239c.886 7.373.797 11.74-.239 11.74-.488 0-1.191 2.025-1.562 4.5-.44 2.935-1.175 4.5-2.113 4.5-.792 0-1.439.45-1.439 1 0 1.232 1.171 1.266 4.185.12 2.305-.877 2.315-.846 2.237 7.2-.093 9.696-.852 10.538-12.422 13.785-6.257 1.755-9.11 2.003-17.213 1.497-15.791-.987-26.248-4.029-28.658-8.337-1.849-3.302-2.426-.292-1.278 6.66C6.483 178.753 7 183.617 7 185.734c0 3.642.281 3.989 5.25 6.473C20.552 196.358 27.59 198 37.076 198c9.012 0 19.718-2.509 24.735-5.796l2.447-1.603-1.655 3.2c-.91 1.759-1.402 3.199-1.093 3.199s.06.934-.551 2.076c-.994 1.857-.911 1.969.785 1.061 2.895-1.55 4.754-10.25 6.76-31.637.103-1.1.688-4.475 1.299-7.5 1.459-7.216 1.661-11.084.697-13.345-.433-1.015-.548-10.65-.256-21.411.461-16.986.27-20.829-1.451-29.155-1.783-8.626-2.35-13.664-2.686-23.839-.114-3.45-2.398-4.539-3.5-1.668M135.158 79c0 1.375.227 1.938.504 1.25.278-.687.278-1.812 0-2.5-.277-.687-.504-.125-.504 1.25m65.342 1c.34.55.816 1 1.059 1s.441-.45.441-1-.477-1-1.059-1-.781.45-.441 1m-39.158 1.552c-.434 1.129-1.377 1.38-3.469.92-3.313-.728-3.708.463-.972 2.938 1.806 1.635 2.004 1.608 4-.534 1.154-1.239 2.099-2.843 2.099-3.565 0-1.788-.932-1.653-1.658.241m-55.1 2.942c-3.088 1.342-4.429 3.42-5.842 9.05-.377 1.502-.186 2.456.492 2.456.609 0 1.108-.718 1.108-1.596 0-2.41 3.202-7.333 5.179-7.961.96-.304 2.662-.063 3.783.537 2.289 1.224 2.511.772 1.003-2.046-1.217-2.274-1.46-2.292-5.723-.44m11.029 1.788c-.675 1.495-1.913 2.718-2.75 2.718-.836 0-1.521.45-1.521 1 0 1.513 2.946 1.197 4.641-.498.824-.824 1.355-2.498 1.179-3.718-.305-2.118-.377-2.095-1.549.498M133 86.5c0 1.375.388 2.5.861 2.5.474 0 .647-1.125.384-2.5s-.651-2.5-.862-2.5-.383 1.125-.383 2.5m66.195 0c.02 1.65.244 2.204.498 1.231s.237-2.323-.037-3-.481.119-.461 1.769m-63.449 8.75c-1.809 1.382-3.472 6.75-2.092 6.75.48 0 1.322-1.013 1.873-2.25.648-1.458 1.752-2.172 3.135-2.03 1.675.173 2.024-.204 1.62-1.75-.592-2.263-2.185-2.516-4.536-.72m41.558-.239c-1.499.604-2.688 2.542-3.746 6.107-1.638 5.514-1.334 8.052.414 3.456.565-1.487 1.028-3.055 1.028-3.484s.835-1.536 1.855-2.459c1.998-1.808 4.654-1.354 5.536.946.807 2.104 3.376 1.727 4.666-.684.816-1.524.826-2.41.036-3.2-.791-.791-1.093-.622-1.093.607 0 2.342-2.694 2.14-4-.3-1.18-2.206-1.505-2.274-4.696-.989m24.156.393c-1.77 1.292-1.967 2.722-2.03 14.763-.06 11.309-.021 11.663.254 2.333.352-11.912 1.566-15.929 4.577-15.142 1.302.341 1.764.011 1.547-1.104-.43-2.217-2.044-2.533-4.348-.85m24.79-.373c-1.238.498-2.25 1.594-2.25 2.437 0 .857-.867 1.532-1.969 1.532-1.339 0-1.784.48-1.393 1.5.862 2.246 2.927 1.813 4.77-1 1.885-2.877 3.78-3.169 6.021-.929 1.829 1.83 1.928 1.498.596-2.006-1.031-2.711-2.124-3.001-5.775-1.534M19 107c0 .55.45 1 1 1s1-.45 1-1-.45-1-1-1-1 .45-1 1m210.345 2.451c-3.191 1.388-5.039 4.616-3.796 6.629.417.675 1.125.197 1.84-1.242.638-1.286 2.162-2.482 3.386-2.658 1.421-.204 2.225-1.016 2.225-2.25 0-1.061-.113-1.912-.25-1.891-.137.022-1.67.657-3.405 1.412M4.125 130.05c-.069 9.673-.555 17.98-1.083 18.508-1.446 1.446-.004 2.898 4.728 4.761 4.998 1.967 5.23 1.998 5.23.681 0-.55-.645-1-1.433-1-2.145 0-2.528-2.403-2.347-14.75.119-8.118.505-11.25 1.389-11.25.673 0 1.374.352 1.558.782s1.683.484 3.333.119c1.65-.366 2.226-.718 1.28-.783-1.735-.119-8.49-3.555-10.21-5.192-.512-.488-1.243-2.808-1.625-5.156-.413-2.539-.745 2.843-.82 13.28M119 120.35c0 2.071-5.83 9.65-7.423 9.65-2.602 0-10.586-3.919-13.094-6.426-3.009-3.009-3.155-2.398-.467 1.952 2.156 3.488 7.298 6.476 11.135 6.47 3.393-.005 8.506-3.431 10.3-6.902 1.771-3.424 2.011-6.094.549-6.094-.55 0-1 .607-1 1.35m67.612.15c-1.884 5.095-4.063 8.508-5.779 9.053-1.103.35-3.78-.47-6.506-1.994-5.319-2.972-6.68-2.628-3.403.86 2.88 3.066 6.418 3.953 10.451 2.622 3.67-1.211 7.014-6.53 6.388-10.16-.386-2.233-.457-2.257-1.151-.381m26.568 2.75L213 128h-4.083c-4.83 0-5.041 2.322-.255 2.801 4.142.415 5.533-1.634 5.076-7.473l-.378-4.828zM147.158 122c0 1.375.227 1.938.504 1.25.278-.687.278-1.812 0-2.5-.277-.687-.504-.125-.504 1.25m-.765 4.419c-.448 1.167-1.55 1.61-3.499 1.406-1.564-.164-2.856.033-2.869.438A62 62 0 0 0 140 130c0 .55 1.523 1 3.383 1 2.897 0 3.46-.396 3.912-2.75.613-3.188.054-4.323-.902-1.831m74.752 1c1.539 3.377 5.314 4.474 13.208 3.841 8.138-.654 8.878-2.476.897-2.211-5.371.179-8.628-.575-13.31-3.081-1.77-.947-1.834-.83-.795 1.451m-93.748.748c-.957 1.548.704 2.833 3.662 2.833 3.971 0 3.887-2.634-.103-3.22-1.674-.245-3.276-.072-3.559.387m66 0c-.957 1.548.704 2.833 3.662 2.833 3.971 0 3.887-2.634-.103-3.22-1.674-.245-3.276-.072-3.559.387m-38.761 1.326c.591 1.541 3.95 1.987 6.782.9 2.883-1.106 1.643-2.066-2.889-2.238-3.614-.137-4.361.12-3.893 1.338M87.63 152.25c-.331 1.238-.553 4.05-.491 6.25l.111 4 .69-4.231c.85-5.214 1.603-6.035 4.105-4.473 1.075.672 1.955.804 1.955.294 0-4.328-5.293-5.857-6.37-1.84M4.232 159c0 1.925.206 2.713.457 1.75.252-.963.252-2.537 0-3.5-.251-.963-.457-.175-.457 1.75m137.09.389c-.863 1.543-1.382 1.649-3.225.663-3.439-1.84-7.539-.961-7.917 1.698-.349 2.458.754 2.916 2.593 1.077.897-.897 1.806-.884 3.867.055 2.333 1.063 2.957.965 4.645-.723 1.073-1.073 1.752-2.548 1.508-3.279-.322-.967-.723-.828-1.471.509M184 160.417c0 1.68.549 2.583 1.57 2.583 1.042 0 1.462-.729 1.25-2.172-.472-3.201-2.82-3.544-2.82-.411m50.651 2.051c-.31.807-.133 1.734.393 2.059s.956-.336.956-1.468c0-2.415-.556-2.658-1.349-.591M198 165.941c0 .518.45 1.219 1 1.559s1-.084 1-.941-.45-1.559-1-1.559-1 .423-1 .941m37.75 3.174c-1.512 1.129-2.75 2.893-2.75 3.922 0 1.79.129 1.797 2.994.166 1.928-1.097 2.996-2.504 3-3.953.007-2.692.174-2.685-3.244-.135M115 171c-1.439 1.439-1.958 3.191-1.85 6.25.12 3.415.236 3.661.588 1.25.547-3.736 1.953-5.5 4.384-5.5 2.075 0 2.147-.136 1.271-2.418-.808-2.106-1.981-1.994-4.393.418m35.971-1.353c-1.931.524-4.231 4.123-3.446 5.394.887 1.434 2.475 1.156 2.475-.434 0-1.873 2.483-2.724 3.878-1.329.829.829 1.122.418 1.122-1.578 0-2.622-.671-2.964-4.029-2.053m65.075.083c-.8.315-2.369 1.425-3.487 2.466-1.741 1.622-1.819 2.028-.546 2.833 2.106 1.331 2.987 1.193 2.987-.47 0-2.066 2.073-3.06 3.057-1.466 1.187 1.92 2.252.455 1.467-2.018-.685-2.157-1.053-2.299-3.478-1.345M134.2 171.2c-.66.66-1.171 2.573-1.137 4.25.059 2.828.13 2.886.968.8.498-1.238 1.594-2.25 2.437-2.25.865 0 1.532-.87 1.532-2 0-2.228-1.96-2.64-3.8-.8m93.029-.012c.618 1.854 2.771 2.161 2.771.395 0-.87-.713-1.583-1.583-1.583-.871 0-1.406.534-1.188 1.188M254.158 173c0 1.375.227 1.938.504 1.25.278-.687.278-1.812 0-2.5-.277-.687-.504-.125-.504 1.25m-93.822 8c0 4.125.177 5.813.392 3.75s.216-5.437 0-7.5c-.215-2.062-.392-.375-.392 3.75M143 183c0 4.583.275 8.059.611 7.723.72-.721.62-14.825-.11-15.556-.276-.275-.501 3.25-.501 7.833m108.691-3.205c-.957 4.783-7.028 12.664-10.031 13.021-1.463.174-2.66.71-2.66 1.191 0 3.556 7.238.161 10.427-4.891 2.604-4.125 4.973-12.116 3.592-12.116-.423 0-1.021 1.258-1.328 2.795M24 179c0 .55.45 1 1 1s1-.45 1-1-.45-1-1-1-1 .45-1 1m81.229 2.221c-.852 3.016-3.384 7.573-5.983 10.773-.221.272-4.466.347-9.435.167-7.187-.26-8.943-.055-8.592 1.006.296.898 2.694 1.431 7.34 1.634 8.559.373 10.768-.162 13.695-3.319 2.462-2.655 5.246-10.533 4.485-12.689-.252-.711-.931.382-1.51 2.428m20.907-1.625c-.155 2.384-2.556 7.614-5.333 11.613l-1.88 2.708-4.689-2.618-4.689-2.618 1.585 2.41c.873 1.325 2.755 3.075 4.182 3.888 2.369 1.35 2.834 1.302 5.313-.549 2.938-2.193 6.714-11.524 6.042-14.93-.376-1.906-.401-1.902-.531.096M28 180.5c.685.825 2.502 1.5 4.039 1.5s3.021.563 3.299 1.25c.277.688.54.012.583-1.5.075-2.615-.148-2.75-4.543-2.75-3.996 0-4.454.203-3.378 1.5m10.676-.75c-.242.412.025 1.875.594 3.25.848 2.049 1.111 2.185 1.456.75.476-1.981 2.274-2.398 2.274-.527 0 .672.679.253 1.509-.932s2.517-2.349 3.75-2.586c1.232-.238-.32-.494-3.45-.569s-5.89.202-6.133.614m112.94.777c-1.828 1.828-2.104 4.054-.616 4.973.55.34 1-.084 1-.941 0-1.426 1.201-2.022 3.328-1.651 1.249.218.344-3.185-.962-3.62-.624-.207-1.861.35-2.75 1.239m53.564 4.723c-.189 7.1-.212 7.128-5.542 6.769-1.998-.135-2.73.211-2.423 1.144.242.735 2.067 1.475 4.056 1.644 3.387.288 3.656.097 4.238-3.003.341-1.82.448-5.558.236-8.307-.343-4.455-.404-4.265-.565 1.753m12.07-5.219c-1.372.552-2.25 1.758-2.25 3.092 0 2.056.109 2.088 1.831.53 1.007-.912 2.132-1.356 2.5-.989s.669-.306.669-1.497-.113-2.138-.25-2.104c-.137.035-1.262.471-2.5.968m23.75.765c0 1.837 1.186 4.204 2.107 4.204 1.431 0 1.03-2.641-.607-4-.908-.754-1.5-.834-1.5-.204m-55.921 2.787c.048 1.165.285 1.402.604.605.289-.722.253-1.585-.079-1.917s-.568.258-.525 1.312m-39.064 7.175c.061 2.939 4.894 5.205 10.036 4.705a702 702 0 0 1 4.199-.399c.412-.035.75-.649.75-1.363 0-.896-1.086-1.173-3.498-.891-1.925.225-5.3-.312-7.5-1.193-2.201-.88-3.995-1.267-3.987-.859M234 191.5c-.685.825-1.865 1.5-2.622 1.5-1.791 0-1.782 1.631.012 2.32 1.447.555 5.61-2.68 5.61-4.359 0-1.443-1.593-1.157-3 .539m-22.378.956c.922 2.405 4.429 3.481 9.241 2.836 5.515-.74 5.238-1.909-.613-2.591-2.613-.304-5.769-.865-7.015-1.247-1.855-.569-2.147-.388-1.613 1.002M129 193.5c0 .933.944 1.5 2.5 1.5s2.5-.567 2.5-1.5-.944-1.5-2.5-1.5-2.5.567-2.5 1.5m8.245-.25c.616 1.87 4.409 2.095 5.096.303.459-1.195-.108-1.553-2.456-1.553-1.994 0-2.909.433-2.64 1.25m42.008.028c.591 1.802 6.747 2.21 6.747.447 0-.915-1.24-1.448-3.574-1.535-2.413-.091-3.444.263-3.173 1.088"/></svg>